<?xml version="1.0" encoding="UTF-8" standalone="no"?><!DOCTYPE svg PUBLIC "-//W3C//DTD SVG 1.1//EN" "http://www.w3.org/Graphics/SVG/1.1/DTD/svg11.dtd"><svg width="100%" height="100%" viewBox="0 0 800 140" version="1.1" xmlns="http://www.w3.org/2000/svg" xmlns:xlink="http://www.w3.org/1999/xlink" xml:space="preserve" style="fill-rule:evenodd;clip-rule:evenodd;stroke-linejoin:round;stroke-miterlimit:1.41421;"><g><path d="M95,48.406c0,5.75 -0.958,11.552 -2.875,17.407c-1.917,5.854 -4.604,11.343 -8.062,16.468c-2.959,4.375 -6.303,8.136 -10.032,11.281c-3.729,3.146 -7.677,5.511 -11.843,7.094c-4.167,1.584 -8.459,2.375 -12.875,2.375c-3.875,0 -7.469,-0.687 -10.782,-2.062c-3.312,-1.375 -6.146,-3.344 -8.5,-5.907c-2.354,-2.562 -4.156,-5.666 -5.406,-9.312c-1.25,-3.646 -1.875,-7.615 -1.875,-11.906c0,-6.959 1.271,-13.792 3.813,-20.5c2.541,-6.709 5.958,-12.677 10.25,-17.907c4.291,-5.229 9.177,-9.364 14.656,-12.406c5.479,-3.041 11.073,-4.562 16.781,-4.562c5.292,0 9.958,1.25 14,3.75c4.042,2.5 7.177,6.021 9.406,10.562c2.229,4.542 3.344,9.75 3.344,15.625Zm-7.187,-2.625c0,-3.875 -0.48,-7.364 -1.438,-10.469c-0.958,-3.104 -2.333,-5.729 -4.125,-7.875c-1.792,-2.145 -3.958,-3.791 -6.5,-4.937c-2.542,-1.146 -5.479,-1.719 -8.812,-1.719c-3.459,0 -6.886,0.761 -10.282,2.281c-3.396,1.521 -6.583,3.75 -9.562,6.688c-2.979,2.937 -5.656,6.51 -8.031,10.719c-2.667,4.666 -4.855,10.26 -6.563,16.781c-1.708,6.521 -2.562,12.552 -2.562,18.094c0,5.208 0.843,9.729 2.531,13.562c1.687,3.834 4.114,6.792 7.281,8.875c3.167,2.084 6.813,3.125 10.938,3.125c3.875,0 7.718,-0.979 11.531,-2.937c3.812,-1.959 7.323,-4.729 10.531,-8.313c3.208,-3.583 5.917,-7.75 8.125,-12.5c1.958,-4.208 3.604,-9.26 4.938,-15.156c1.333,-5.896 2,-11.302 2,-16.219Z" style="fill:#fff;fill-rule:nonzero;"/><path d="M108.563,65.469l-6.063,24.187c-0.542,2.167 -0.812,4 -0.812,5.5c0,1.459 0.458,2.625 1.375,3.5c0.916,0.875 2.104,1.313 3.562,1.313c3.542,0 7.229,-2.896 11.063,-8.688l0.25,-0.375c0.083,-0.416 0.145,-0.75 0.187,-1l3.938,-21.875l6.125,-2.562l-5.5,20.562c-0.917,3.375 -1.375,6.084 -1.375,8.125c0,1.334 0.229,2.417 0.687,3.25c0.458,0.834 1.063,1.25 1.813,1.25c1.291,0 3.354,-1.541 6.187,-4.625l1,0.875l-0.625,0.688c-2.375,2.791 -4.125,4.677 -5.25,5.656c-1.125,0.979 -2.167,1.469 -3.125,1.469c-1.292,0 -2.385,-0.657 -3.281,-1.969c-0.896,-1.313 -1.344,-2.948 -1.344,-4.906c0,-0.625 0.021,-1.209 0.063,-1.75c-4.334,5.75 -8.625,8.625 -12.875,8.625c-2.125,0 -3.823,-0.615 -5.094,-1.844c-1.271,-1.229 -1.906,-2.865 -1.906,-4.906c0,-1.584 0.229,-3.521 0.687,-5.813l4.25,-22.125l6.063,-2.562Z" style="fill:#fff;fill-rule:nonzero;"/><path d="M134.438,84.281c3.583,-4.333 5.979,-8.375 7.187,-12.125c-3.375,-1.875 -5.062,-4.562 -5.062,-8.062c0,-1.667 0.395,-3.021 1.187,-4.063c0.792,-1.041 1.792,-1.562 3,-1.562c1.25,0 2.271,0.573 3.063,1.718c0.791,1.146 1.187,2.636 1.187,4.469c0,1.292 -0.229,2.729 -0.687,4.313c1.125,0.291 2.145,0.437 3.062,0.437c2.583,0 4.708,-0.75 6.375,-2.25l3,0l-0.437,0.875c-3,5.5 -5.469,10.906 -7.407,16.219c-1.937,5.313 -2.906,9.281 -2.906,11.906c0,0.959 0.25,1.761 0.75,2.406c0.5,0.646 1.104,0.969 1.813,0.969c1.708,0 4.458,-1.812 8.25,-5.437l1,1.125c-1.167,1.291 -2.98,2.896 -5.438,4.812c-2.208,1.75 -4.271,2.625 -6.187,2.625c-1.625,0 -2.907,-0.541 -3.844,-1.625c-0.938,-1.083 -1.406,-2.562 -1.406,-4.437c0,-3.125 1.208,-7.084 3.625,-11.875c0.875,-1.792 2,-3.834 3.375,-6.125c1.375,-2.292 3.104,-5.021 5.187,-8.188l0.625,-0.875c-1.375,1.25 -2.698,2.136 -3.969,2.656c-1.271,0.521 -2.718,0.782 -4.343,0.782c-0.75,0 -1.542,-0.104 -2.375,-0.313c-1.334,4.084 -3.834,8.292 -7.5,12.625l-1.125,-1Zm8.562,-15.875c0.167,-1.041 0.25,-1.916 0.25,-2.625c0,-1.458 -0.24,-2.604 -0.719,-3.437c-0.479,-0.834 -1.093,-1.25 -1.843,-1.25c-0.417,0 -0.782,0.198 -1.094,0.593c-0.313,0.396 -0.469,0.886 -0.469,1.469c0,1.959 1.292,3.709 3.875,5.25Z" style="fill:#fff;fill-rule:nonzero;"/><path d="M280.813,22.844l5.625,-2.375c-0.125,15.583 -4.667,32.854 -13.625,51.812c-2.709,5.709 -5.542,10.969 -8.5,15.781c-2.959,4.813 -5.625,8.448 -8,10.907c-1.542,1.625 -2.875,2.771 -4,3.437c-1.125,0.667 -2.23,1 -3.313,1c-1.958,0 -3.302,-0.833 -4.031,-2.5c-0.729,-1.666 -1.094,-4.75 -1.094,-9.25c0,-3.583 0.021,-6.25 0.063,-8c0,-3.833 0.166,-9.854 0.5,-18.062c0.333,-7.834 0.687,-13.792 1.062,-17.875l0.125,-1.938c-3.042,11.917 -7.792,23.729 -14.25,35.438c-4.083,7.5 -8.187,13.583 -12.312,18.25c-2.334,2.708 -4.563,4.062 -6.688,4.062c-2.5,0 -4.062,-1.291 -4.687,-3.875c-0.167,-0.833 -0.25,-2.604 -0.25,-5.312l0,-1.875l2.25,-58.625c0.125,-2.334 0.187,-4.229 0.187,-5.688c0,-5.25 -1.333,-7.875 -4,-7.875c-1.625,0 -3,0.771 -4.125,2.313c-1.125,1.541 -2.271,4.229 -3.437,8.062c-1.792,5.917 -3.188,12.354 -4.188,19.313l-4.687,-3.125c0.916,-5.959 2.177,-11.104 3.781,-15.438c1.604,-4.333 3.479,-7.583 5.625,-9.75c2.146,-2.166 4.469,-3.25 6.969,-3.25c6.333,0 9.5,5.604 9.5,16.813c0,1.958 -0.021,3.541 -0.063,4.75l-2,50.687c-0.042,0.459 -0.062,1.188 -0.062,2.188c0,1.958 0.156,3.333 0.468,4.125c0.313,0.791 0.865,1.187 1.657,1.187c1.083,0 2.354,-0.739 3.812,-2.219c1.458,-1.479 3.292,-3.906 5.5,-7.281c2.708,-4.083 5.469,-8.969 8.281,-14.656c2.813,-5.688 5.219,-11.323 7.219,-16.906c0.958,-2.625 1.917,-5.657 2.875,-9.094c0.958,-3.438 1.719,-6.594 2.281,-9.469c0.563,-2.875 1.219,-7 1.969,-12.375l0.188,-1.5l6.062,-2.625l-0.125,1.438l-2,19.687c-0.167,2.042 -0.375,5 -0.625,8.875c-0.25,3.875 -0.427,7.386 -0.531,10.532c-0.104,3.145 -0.219,6.531 -0.344,10.156c-0.208,7.625 -0.312,13.291 -0.312,17c0,3.375 0.156,5.656 0.468,6.843c0.313,1.188 0.927,1.782 1.844,1.782c0.958,0 2.115,-0.646 3.469,-1.938c1.354,-1.291 3.01,-3.333 4.969,-6.125c4.291,-6.125 7.979,-12.666 11.062,-19.625c3.083,-6.958 5.448,-14.135 7.094,-21.531c1.646,-7.396 2.469,-14.406 2.469,-21.031c0,-0.417 -0.042,-2.167 -0.125,-5.25Z" style="fill:#fff;fill-rule:nonzero;"/><path d="M306.938,92.344l1.125,0.937c-2.584,3.417 -5.105,5.886 -7.563,7.406c-2.458,1.521 -5.104,2.282 -7.937,2.282c-3.375,0 -6.084,-1.125 -8.125,-3.375c-2.042,-2.25 -3.063,-5.229 -3.063,-8.938c0,-3.75 0.99,-7.552 2.969,-11.406c1.979,-3.854 4.458,-7.042 7.437,-9.563c2.979,-2.52 5.927,-3.781 8.844,-3.781c1.708,0 3.115,0.5 4.219,1.5c1.104,1 1.656,2.292 1.656,3.875c0,3.209 -1.75,6.417 -5.25,9.625c-3.5,3.209 -8.271,5.938 -14.312,8.188c-0.042,0.333 -0.063,0.708 -0.063,1.125c0,2.875 0.792,5.219 2.375,7.031c1.583,1.813 3.625,2.719 6.125,2.719c1.958,0 3.854,-0.615 5.688,-1.844c1.833,-1.229 3.791,-3.156 5.875,-5.781Zm-20,-4.75c4.5,-2 7.958,-4.229 10.375,-6.688c1.625,-1.666 2.937,-3.458 3.937,-5.375c1,-1.916 1.5,-3.646 1.5,-5.187c0,-1.959 -0.896,-2.938 -2.687,-2.938c-2.709,0 -5.448,2.136 -8.219,6.407c-2.771,4.27 -4.406,8.864 -4.906,13.781Z" style="fill:#fff;fill-rule:nonzero;"/><path d="M357.75,13.969l-16.562,72.062c-0.875,3.834 -1.313,6.5 -1.313,8c0,1.334 0.24,2.417 0.719,3.25c0.479,0.834 1.135,1.25 1.969,1.25c1.083,0 2.395,-0.812 3.937,-2.437l1.813,-1.813c0.041,-0.041 0.083,-0.083 0.125,-0.125c0.041,-0.041 0.104,-0.083 0.187,-0.125l0.938,0.875l-0.5,0.563c-1.584,1.75 -2.396,2.646 -2.438,2.687l-2.062,2.063c-1.042,1.041 -1.803,1.698 -2.282,1.969c-0.479,0.27 -1.01,0.406 -1.593,0.406c-1.375,0 -2.521,-0.709 -3.438,-2.125c-0.917,-1.417 -1.375,-3.042 -1.375,-4.875c0,-1.084 0.292,-3.063 0.875,-5.938l0.688,-3.562c-1.084,2.625 -2.792,5.479 -5.125,8.562c-4.209,5.417 -8.292,8.125 -12.25,8.125c-2.375,0 -4.25,-0.864 -5.625,-2.593c-1.375,-1.73 -2.063,-4.073 -2.063,-7.032c0,-4.125 1.083,-8.302 3.25,-12.531c2.167,-4.229 4.927,-7.719 8.281,-10.469c3.354,-2.75 6.698,-4.125 10.032,-4.125c2.458,0 4.75,0.729 6.875,2.188l10.187,-51.063l6.75,-3.187Zm-17.5,57.375c-0.375,-1.125 -1.146,-2.031 -2.312,-2.719c-1.167,-0.688 -2.417,-1.031 -3.75,-1.031c-1.959,0 -3.969,0.875 -6.032,2.625c-2.062,1.75 -4.01,4.229 -5.843,7.437c-1.334,2.375 -2.428,4.969 -3.282,7.782c-0.854,2.812 -1.281,5.364 -1.281,7.656c0,2 0.427,3.604 1.281,4.812c0.854,1.209 2.032,1.813 3.532,1.813c1.75,0 3.635,-0.896 5.656,-2.688c2.021,-1.791 4.052,-4.375 6.094,-7.75c1.375,-2.291 2.458,-4.666 3.25,-7.125c0.958,-3.166 1.645,-5.708 2.062,-7.625l0.625,-3.187Z" style="fill:#fff;fill-rule:nonzero;"/><path d="M398.438,13.969l-16.563,72.062c-0.875,3.834 -1.312,6.5 -1.312,8c0,1.334 0.239,2.417 0.718,3.25c0.479,0.834 1.136,1.25 1.969,1.25c1.083,0 2.396,-0.812 3.938,-2.437l1.812,-1.813c0.042,-0.041 0.083,-0.083 0.125,-0.125c0.042,-0.041 0.104,-0.083 0.188,-0.125l0.937,0.875l-0.5,0.563c-1.583,1.75 -2.396,2.646 -2.437,2.687l-2.063,2.063c-1.042,1.041 -1.802,1.698 -2.281,1.969c-0.479,0.27 -1.011,0.406 -1.594,0.406c-1.375,0 -2.521,-0.709 -3.437,-2.125c-0.917,-1.417 -1.375,-3.042 -1.375,-4.875c0,-1.084 0.291,-3.063 0.875,-5.938l0.687,-3.562c-1.083,2.625 -2.792,5.479 -5.125,8.562c-4.208,5.417 -8.292,8.125 -12.25,8.125c-2.375,0 -4.25,-0.864 -5.625,-2.593c-1.375,-1.73 -2.062,-4.073 -2.062,-7.032c0,-4.125 1.083,-8.302 3.25,-12.531c2.166,-4.229 4.927,-7.719 8.281,-10.469c3.354,-2.75 6.698,-4.125 10.031,-4.125c2.458,0 4.75,0.729 6.875,2.188l10.188,-51.063l6.75,-3.187Zm-17.5,57.375c-0.375,-1.125 -1.146,-2.031 -2.313,-2.719c-1.167,-0.688 -2.417,-1.031 -3.75,-1.031c-1.958,0 -3.969,0.875 -6.031,2.625c-2.063,1.75 -4.011,4.229 -5.844,7.437c-1.333,2.375 -2.427,4.969 -3.281,7.782c-0.854,2.812 -1.281,5.364 -1.281,7.656c0,2 0.427,3.604 1.281,4.812c0.854,1.209 2.031,1.813 3.531,1.813c1.75,0 3.635,-0.896 5.656,-2.688c2.021,-1.791 4.052,-4.375 6.094,-7.75c1.375,-2.291 2.458,-4.666 3.25,-7.125c0.958,-3.166 1.646,-5.708 2.063,-7.625l0.625,-3.187Z" style="fill:#fff;fill-rule:nonzero;"/><path d="M408.063,40.969c1.083,0 1.958,0.333 2.625,1c0.666,0.666 1,1.541 1,2.625c0,1.041 -0.355,1.916 -1.063,2.625c-0.708,0.708 -1.562,1.062 -2.562,1.062c-0.959,0 -1.813,-0.375 -2.563,-1.125c-0.75,-0.75 -1.125,-1.604 -1.125,-2.562c0,-1 0.354,-1.854 1.063,-2.563c0.708,-0.708 1.583,-1.062 2.625,-1.062Zm-1.813,24.5l-5.5,20.562c-0.917,3.375 -1.375,6.084 -1.375,8.125c0,1.334 0.229,2.417 0.688,3.25c0.458,0.834 1.062,1.25 1.812,1.25c1.292,0 3.354,-1.541 6.188,-4.625l1,0.875l-0.625,0.688c-2.375,2.791 -4.125,4.677 -5.25,5.656c-1.125,0.979 -2.167,1.469 -3.125,1.469c-1.292,0 -2.386,-0.656 -3.282,-1.969c-0.896,-1.313 -1.343,-2.948 -1.343,-4.906c0,-1.25 0.25,-3.229 0.75,-5.938l3.937,-21.875l6.125,-2.562Z" style="fill:#fff;fill-rule:nonzero;"/><path d="M412.813,102.656l6.625,-34.625l5.937,-2.562l-5.375,22.937c3.458,-7.291 6.896,-12.833 10.313,-16.625c3.416,-3.791 6.687,-5.687 9.812,-5.687c1.542,0 2.792,0.51 3.75,1.531c0.958,1.021 1.438,2.385 1.438,4.094c0,0.958 -0.23,2.312 -0.688,4.062l-0.625,2.625l-1.875,7.625l-0.625,2.438c-0.625,2.5 -0.937,4.416 -0.937,5.75c0,1.333 0.229,2.406 0.687,3.218c0.458,0.813 1.063,1.219 1.813,1.219c1.291,0 3.354,-1.541 6.187,-4.625l1,0.875l-0.625,0.688c-2.375,2.791 -4.125,4.677 -5.25,5.656c-1.125,0.979 -2.167,1.469 -3.125,1.469c-1.292,0 -2.385,-0.657 -3.281,-1.969c-0.896,-1.313 -1.344,-2.948 -1.344,-4.906c0,-1.334 0.25,-3.313 0.75,-5.938l2.438,-13.25c0.333,-2.083 0.5,-3.541 0.5,-4.375c0,-0.875 -0.23,-1.541 -0.688,-2c-0.458,-0.458 -1.083,-0.687 -1.875,-0.687c-2.875,0 -6.417,3.083 -10.625,9.25c-2.042,2.958 -3.729,5.885 -5.062,8.781c-1.334,2.896 -2.834,6.906 -4.5,12.031l-0.563,1.688l-4.187,1.312Z" style="fill:#fff;fill-rule:nonzero;"/><path d="M488.625,65.094l-9.562,38.062c-0.959,4.084 -1.803,7.084 -2.532,9c-0.729,1.917 -1.614,3.667 -2.656,5.25c-1.958,3 -4.344,5.302 -7.156,6.906c-2.813,1.605 -5.844,2.407 -9.094,2.407c-2.958,0 -5.562,-0.834 -7.812,-2.5l3.187,-4.125c2.708,2.583 5.396,3.875 8.063,3.875c1.708,0 3.437,-0.542 5.187,-1.625c1.75,-1.084 3.042,-2.417 3.875,-4c1.083,-1.917 2.208,-5.396 3.375,-10.438l4.813,-20.625c-5.584,10.417 -11.25,15.625 -17,15.625c-2.334,0 -4.219,-0.885 -5.657,-2.656c-1.437,-1.771 -2.156,-4.031 -2.156,-6.781c0,-3.917 1.104,-8 3.313,-12.25c2.208,-4.25 4.989,-7.781 8.343,-10.594c3.354,-2.813 6.615,-4.219 9.782,-4.219c2.958,0 5.416,1.104 7.375,3.313l0.562,-2.188l5.75,-2.437Zm-7,7.75c-1.625,-3.125 -3.771,-4.688 -6.437,-4.688c-2.792,0 -5.542,1.542 -8.25,4.625c-2.209,2.584 -4.094,5.823 -5.657,9.719c-1.562,3.896 -2.343,7.385 -2.343,10.469c0,2.083 0.447,3.719 1.343,4.906c0.896,1.188 2.157,1.781 3.782,1.781c1.666,0 3.51,-0.916 5.531,-2.75c2.021,-1.833 4.031,-4.416 6.031,-7.75c2.292,-3.791 4.063,-8.291 5.313,-13.5l0.687,-2.812Z" style="fill:#fff;fill-rule:nonzero;"/><path d="M520.563,102.031l7.812,-36.062c1.333,-6.125 2.406,-12.511 3.219,-19.157c0.812,-6.645 1.218,-12.781 1.218,-18.406c0,-1.291 -0.02,-2.437 -0.062,-3.437l6.875,-3.125l0,1.75c0,2.75 -0.25,7.187 -0.75,13.312c-0.5,6.125 -1.021,10.834 -1.563,14.125c2.542,-5.958 5.709,-11.489 9.5,-16.594c3.792,-5.104 7.678,-9.135 11.657,-12.093c3.979,-2.959 7.593,-4.438 10.843,-4.438c3.25,0 5.865,1.302 7.844,3.906c1.979,2.605 2.969,6.094 2.969,10.469c0,5.5 -1.188,11.021 -3.563,16.563c-2.375,5.541 -5.614,10.646 -9.718,15.312c-4.104,4.667 -8.604,8.344 -13.5,11.031c-4.896,2.688 -9.74,4.032 -14.532,4.032c-1.083,0 -2.354,-0.146 -3.812,-0.438l3.312,-4.437c2.042,0.666 4.125,1 6.25,1c3.459,0 6.928,-1.157 10.407,-3.469c3.479,-2.313 6.593,-5.573 9.343,-9.781c2.542,-3.875 4.709,-8.698 6.5,-14.469c1.792,-5.771 2.688,-10.76 2.688,-14.969c0,-3.5 -0.594,-6.229 -1.781,-8.187c-1.188,-1.959 -2.844,-2.938 -4.969,-2.938c-3,0 -6.458,1.719 -10.375,5.156c-3.917,3.438 -7.75,8.094 -11.5,13.969c-2.708,4.167 -4.969,8.667 -6.781,13.5c-1.813,4.834 -3.427,10.438 -4.844,16.813l-6.75,31.062l-5.938,0Z" style="fill:#fff;fill-rule:nonzero;"/><path d="M598.938,13.969l-16.438,72.062l-0.563,2.438c-0.541,2.291 -0.812,4.229 -0.812,5.812c0,1.292 0.24,2.344 0.719,3.157c0.479,0.812 1.073,1.218 1.781,1.218c1.292,0 3.354,-1.541 6.188,-4.625l1,0.875l-0.625,0.688c-2.375,2.791 -4.125,4.677 -5.25,5.656c-1.125,0.979 -2.167,1.469 -3.125,1.469c-1.25,0 -2.344,-0.698 -3.282,-2.094c-0.937,-1.396 -1.406,-2.99 -1.406,-4.781c0,-1.25 0.271,-3.229 0.813,-5.938l14.437,-72.75l6.563,-3.187Z" style="fill:#fff;fill-rule:nonzero;"/><path d="M629.188,65.094l-5.875,22.875c-0.625,2.5 -0.938,4.458 -0.938,5.875c0,1.25 0.271,2.333 0.813,3.25c0.541,0.916 1.208,1.375 2,1.375c1.208,0 3.208,-1.479 6,-4.438l0.875,0.875l-0.688,0.813c-2.208,2.541 -3.906,4.323 -5.094,5.343c-1.187,1.021 -2.218,1.532 -3.093,1.532c-1.334,0 -2.49,-0.698 -3.469,-2.094c-0.979,-1.396 -1.469,-3.01 -1.469,-4.844c0,-1.333 0.5,-4.354 1.5,-9.062l0.5,-2.375c-1.542,3.583 -3.604,7.021 -6.187,10.312c-4.334,5.5 -8.48,8.25 -12.438,8.25c-2.375,0 -4.25,-0.854 -5.625,-2.562c-1.375,-1.709 -2.062,-4 -2.062,-6.875c0,-3.917 1.114,-8.021 3.343,-12.313c2.229,-4.291 5,-7.823 8.313,-10.594c3.312,-2.77 6.531,-4.156 9.656,-4.156c3.292,0 5.75,1.209 7.375,3.625l0.688,-2.375l5.875,-2.437Zm-7.188,8c-0.5,-1.584 -1.344,-2.823 -2.531,-3.719c-1.188,-0.896 -2.552,-1.344 -4.094,-1.344c-1.833,0 -3.771,0.844 -5.812,2.531c-2.042,1.688 -3.917,4.032 -5.625,7.032c-1.334,2.375 -2.448,5 -3.344,7.875c-0.896,2.875 -1.344,5.25 -1.344,7.125c0,2.125 0.406,3.791 1.219,5c0.812,1.208 1.969,1.812 3.469,1.812c1.916,0 3.916,-0.896 6,-2.687c2.083,-1.792 4.145,-4.354 6.187,-7.688c1.25,-1.916 2.229,-3.833 2.938,-5.75c0.708,-1.916 1.5,-4.583 2.375,-8l0.562,-2.187Z" style="fill:#fff;fill-rule:nonzero;"/><path d="M636.188,102.656l6.625,-34.625l5.937,-2.562l-5.375,22.937c3.458,-7.291 6.896,-12.833 10.313,-16.625c3.416,-3.791 6.687,-5.687 9.812,-5.687c1.542,0 2.792,0.51 3.75,1.531c0.958,1.021 1.438,2.385 1.438,4.094c0,0.958 -0.23,2.312 -0.688,4.062l-0.625,2.625l-1.875,7.625l-0.625,2.438c-0.625,2.5 -0.938,4.416 -0.938,5.75c0,1.333 0.23,2.406 0.688,3.218c0.458,0.813 1.063,1.219 1.813,1.219c1.291,0 3.354,-1.541 6.187,-4.625l1,0.875l-0.625,0.688c-2.375,2.791 -4.125,4.677 -5.25,5.656c-1.125,0.979 -2.167,1.469 -3.125,1.469c-1.292,0 -2.385,-0.657 -3.281,-1.969c-0.896,-1.313 -1.344,-2.948 -1.344,-4.906c0,-1.334 0.25,-3.313 0.75,-5.938l2.438,-13.25c0.333,-2.083 0.5,-3.541 0.5,-4.375c0,-0.875 -0.23,-1.541 -0.688,-2c-0.458,-0.458 -1.083,-0.687 -1.875,-0.687c-2.875,0 -6.417,3.083 -10.625,9.25c-2.042,2.958 -3.729,5.885 -5.063,8.781c-1.333,2.896 -2.833,6.906 -4.5,12.031l-0.562,1.688l-4.188,1.312Z" style="fill:#fff;fill-rule:nonzero;"/><path d="M677.688,102.656l6.625,-34.625l5.937,-2.562l-5.375,22.937c3.458,-7.291 6.896,-12.833 10.313,-16.625c3.416,-3.791 6.687,-5.687 9.812,-5.687c1.542,0 2.792,0.51 3.75,1.531c0.958,1.021 1.438,2.385 1.438,4.094c0,0.958 -0.23,2.312 -0.688,4.062l-0.625,2.625l-1.875,7.625l-0.625,2.438c-0.625,2.5 -0.938,4.416 -0.938,5.75c0,1.333 0.23,2.406 0.688,3.218c0.458,0.813 1.063,1.219 1.813,1.219c1.291,0 3.354,-1.541 6.187,-4.625l1,0.875l-0.625,0.688c-2.375,2.791 -4.125,4.677 -5.25,5.656c-1.125,0.979 -2.167,1.469 -3.125,1.469c-1.292,0 -2.385,-0.657 -3.281,-1.969c-0.896,-1.313 -1.344,-2.948 -1.344,-4.906c0,-1.334 0.25,-3.313 0.75,-5.938l2.438,-13.25c0.333,-2.083 0.5,-3.541 0.5,-4.375c0,-0.875 -0.23,-1.541 -0.688,-2c-0.458,-0.458 -1.083,-0.687 -1.875,-0.687c-2.875,0 -6.417,3.083 -10.625,9.25c-2.042,2.958 -3.729,5.885 -5.063,8.781c-1.333,2.896 -2.833,6.906 -4.5,12.031l-0.562,1.688l-4.188,1.312Z" style="fill:#fff;fill-rule:nonzero;"/><path d="M744.125,92.344l1.125,0.937c-2.583,3.417 -5.104,5.886 -7.563,7.406c-2.458,1.521 -5.104,2.282 -7.937,2.282c-3.375,0 -6.083,-1.125 -8.125,-3.375c-2.042,-2.25 -3.063,-5.229 -3.063,-8.938c0,-3.75 0.99,-7.552 2.969,-11.406c1.979,-3.854 4.459,-7.042 7.438,-9.563c2.979,-2.52 5.927,-3.781 8.843,-3.781c1.709,0 3.115,0.5 4.219,1.5c1.104,1 1.656,2.292 1.656,3.875c0,3.209 -1.75,6.417 -5.25,9.625c-3.5,3.209 -8.27,5.938 -14.312,8.188c-0.042,0.333 -0.063,0.708 -0.063,1.125c0,2.875 0.792,5.219 2.375,7.031c1.584,1.813 3.625,2.719 6.125,2.719c1.959,0 3.855,-0.615 5.688,-1.844c1.833,-1.229 3.792,-3.156 5.875,-5.781Zm-20,-4.75c4.5,-2 7.958,-4.229 10.375,-6.688c1.625,-1.666 2.938,-3.458 3.938,-5.375c1,-1.916 1.5,-3.646 1.5,-5.187c0,-1.959 -0.896,-2.938 -2.688,-2.938c-2.708,0 -5.448,2.136 -8.219,6.407c-2.771,4.27 -4.406,8.864 -4.906,13.781Z" style="fill:#fff;fill-rule:nonzero;"/><path d="M749.563,84.281c3.583,-4.333 5.979,-8.375 7.187,-12.125c-3.375,-1.875 -5.063,-4.562 -5.063,-8.062c0,-1.667 0.396,-3.021 1.188,-4.063c0.792,-1.041 1.792,-1.562 3,-1.562c1.25,0 2.271,0.573 3.063,1.718c0.791,1.146 1.187,2.636 1.187,4.469c0,1.292 -0.229,2.729 -0.688,4.313c1.125,0.291 2.146,0.437 3.063,0.437c2.583,0 4.708,-0.75 6.375,-2.25l3,0l-0.438,0.875c-3,5.5 -5.468,10.906 -7.406,16.219c-1.937,5.313 -2.906,9.281 -2.906,11.906c0,0.959 0.25,1.761 0.75,2.406c0.5,0.646 1.104,0.969 1.812,0.969c1.709,0 4.459,-1.812 8.25,-5.437l1,1.125c-1.166,1.291 -2.979,2.896 -5.437,4.812c-2.208,1.75 -4.271,2.625 -6.188,2.625c-1.625,0 -2.906,-0.541 -3.843,-1.625c-0.938,-1.083 -1.407,-2.562 -1.407,-4.437c0,-3.125 1.209,-7.084 3.625,-11.875c0.875,-1.792 2,-3.834 3.375,-6.125c1.375,-2.292 3.105,-5.021 5.188,-8.188l0.625,-0.875c-1.375,1.25 -2.698,2.136 -3.969,2.656c-1.271,0.521 -2.719,0.782 -4.344,0.782c-0.75,0 -1.541,-0.104 -2.375,-0.313c-1.333,4.084 -3.833,8.292 -7.5,12.625l-1.125,-1Zm8.563,-15.875c0.167,-1.041 0.25,-1.916 0.25,-2.625c0,-1.458 -0.24,-2.604 -0.719,-3.437c-0.479,-0.834 -1.093,-1.25 -1.843,-1.25c-0.417,0 -0.782,0.198 -1.094,0.593c-0.313,0.396 -0.469,0.886 -0.469,1.469c0,1.959 1.292,3.709 3.875,5.25Z" style="fill:#fff;fill-rule:nonzero;"/></g></svg>