<?xml version="1.0" encoding="UTF-8" standalone="no"?>
<!DOCTYPE svg PUBLIC "-//W3C//DTD SVG 1.1//EN" "http://www.w3.org/Graphics/SVG/1.1/DTD/svg11.dtd">
<svg width="100%" height="100%" viewBox="0 0 1600 280" version="1.1" xmlns="http://www.w3.org/2000/svg" xmlns:xlink="http://www.w3.org/1999/xlink" xml:space="preserve" style="fill-rule:evenodd;clip-rule:evenodd;stroke-linejoin:round;stroke-miterlimit:1.41421;">
    <g transform="matrix(2,0,0,2,0,0)">
        <g transform="matrix(1,0,0,1,1.15217,30.053)">
            <g>
                <path d="M93.848,18.353C93.848,24.103 92.889,29.905 90.973,35.76C89.056,41.614 86.369,47.103 82.91,52.228C79.952,56.603 76.608,60.364 72.879,63.51C69.15,66.655 65.202,69.02 61.035,70.603C56.869,72.187 52.577,72.978 48.16,72.978C44.285,72.978 40.692,72.291 37.379,70.916C34.067,69.541 31.233,67.572 28.879,65.01C26.525,62.447 24.723,59.343 23.473,55.697C22.223,52.051 21.598,48.082 21.598,43.791C21.598,36.832 22.869,29.999 25.41,23.291C27.952,16.582 31.369,10.614 35.66,5.385C39.952,0.155 44.837,-3.98 50.317,-7.022C55.796,-10.063 61.389,-11.584 67.098,-11.584C72.389,-11.584 77.056,-10.334 81.098,-7.834C85.139,-5.334 88.275,-1.813 90.504,2.728C92.733,7.27 93.848,12.478 93.848,18.353ZM86.66,15.728C86.66,11.853 86.181,8.364 85.223,5.26C84.264,2.155 82.889,-0.47 81.098,-2.615C79.306,-4.761 77.139,-6.407 74.598,-7.553C72.056,-8.699 69.119,-9.272 65.785,-9.272C62.327,-9.272 58.9,-8.511 55.504,-6.99C52.108,-5.47 48.921,-3.24 45.942,-0.303C42.962,2.635 40.285,6.207 37.91,10.416C35.244,15.082 33.056,20.676 31.348,27.197C29.639,33.718 28.785,39.749 28.785,45.291C28.785,50.499 29.629,55.02 31.317,58.853C33.004,62.687 35.431,65.645 38.598,67.728C41.764,69.812 45.41,70.853 49.535,70.853C53.41,70.853 57.254,69.874 61.067,67.916C64.879,65.957 68.389,63.187 71.598,59.603C74.806,56.02 77.514,51.853 79.723,47.103C81.681,42.895 83.327,37.843 84.66,31.947C85.994,26.051 86.66,20.645 86.66,15.728Z" style="fill-rule:nonzero;"/>
                <path d="M107.41,35.416L101.348,59.603C100.806,61.77 100.535,63.603 100.535,65.103C100.535,66.562 100.994,67.728 101.91,68.603C102.827,69.478 104.014,69.916 105.473,69.916C109.014,69.916 112.702,67.02 116.535,61.228L116.785,60.853C116.869,60.437 116.931,60.103 116.973,59.853L120.91,37.978L127.035,35.416L121.535,55.978C120.619,59.353 120.16,62.062 120.16,64.103C120.16,65.437 120.389,66.52 120.848,67.353C121.306,68.187 121.91,68.603 122.66,68.603C123.952,68.603 126.014,67.062 128.848,63.978L129.848,64.853L129.223,65.541C126.848,68.332 125.098,70.218 123.973,71.197C122.848,72.176 121.806,72.666 120.848,72.666C119.556,72.666 118.462,72.01 117.567,70.697C116.671,69.385 116.223,67.749 116.223,65.791C116.223,65.166 116.244,64.582 116.285,64.041C111.952,69.791 107.66,72.666 103.41,72.666C101.285,72.666 99.587,72.051 98.317,70.822C97.046,69.593 96.41,67.957 96.41,65.916C96.41,64.332 96.639,62.395 97.098,60.103L101.348,37.978L107.41,35.416Z" style="fill-rule:nonzero;"/>
                <path d="M133.285,54.228C136.869,49.895 139.264,45.853 140.473,42.103C137.098,40.228 135.41,37.541 135.41,34.041C135.41,32.374 135.806,31.02 136.598,29.978C137.389,28.937 138.389,28.416 139.598,28.416C140.848,28.416 141.869,28.989 142.66,30.135C143.452,31.28 143.848,32.77 143.848,34.603C143.848,35.895 143.619,37.332 143.16,38.916C144.285,39.207 145.306,39.353 146.223,39.353C148.806,39.353 150.931,38.603 152.598,37.103L155.598,37.103L155.16,37.978C152.16,43.478 149.692,48.885 147.754,54.197C145.817,59.51 144.848,63.478 144.848,66.103C144.848,67.062 145.098,67.864 145.598,68.51C146.098,69.155 146.702,69.478 147.41,69.478C149.119,69.478 151.869,67.666 155.66,64.041L156.66,65.166C155.494,66.457 153.681,68.062 151.223,69.978C149.014,71.728 146.952,72.603 145.035,72.603C143.41,72.603 142.129,72.062 141.192,70.978C140.254,69.895 139.785,68.416 139.785,66.541C139.785,63.416 140.994,59.457 143.41,54.666C144.285,52.874 145.41,50.832 146.785,48.541C148.16,46.249 149.889,43.52 151.973,40.353L152.598,39.478C151.223,40.728 149.9,41.614 148.629,42.135C147.358,42.655 145.91,42.916 144.285,42.916C143.535,42.916 142.744,42.812 141.91,42.603C140.577,46.687 138.077,50.895 134.41,55.228L133.285,54.228ZM141.848,38.353C142.014,37.312 142.098,36.437 142.098,35.728C142.098,34.27 141.858,33.124 141.379,32.291C140.9,31.457 140.285,31.041 139.535,31.041C139.119,31.041 138.754,31.239 138.442,31.635C138.129,32.03 137.973,32.52 137.973,33.103C137.973,35.062 139.264,36.812 141.848,38.353Z" style="fill-rule:nonzero;"/>
                <path d="M279.66,-7.209L285.285,-9.584C285.16,5.999 280.619,23.27 271.66,42.228C268.952,47.937 266.119,53.197 263.16,58.01C260.202,62.822 257.535,66.457 255.16,68.916C253.619,70.541 252.285,71.687 251.16,72.353C250.035,73.02 248.931,73.353 247.848,73.353C245.889,73.353 244.546,72.52 243.817,70.853C243.087,69.187 242.723,66.103 242.723,61.603C242.723,58.02 242.744,55.353 242.785,53.603C242.785,49.77 242.952,43.749 243.285,35.541C243.619,27.707 243.973,21.749 244.348,17.666L244.473,15.728C241.431,27.645 236.681,39.457 230.223,51.166C226.139,58.666 222.035,64.749 217.91,69.416C215.577,72.124 213.348,73.478 211.223,73.478C208.723,73.478 207.16,72.187 206.535,69.603C206.369,68.77 206.285,66.999 206.285,64.291L206.285,62.416L208.535,3.791C208.66,1.457 208.723,-0.438 208.723,-1.897C208.723,-7.147 207.389,-9.772 204.723,-9.772C203.098,-9.772 201.723,-9.001 200.598,-7.459C199.473,-5.918 198.327,-3.23 197.16,0.603C195.369,6.52 193.973,12.957 192.973,19.916L188.285,16.791C189.202,10.832 190.462,5.687 192.067,1.353C193.671,-2.98 195.546,-6.23 197.692,-8.397C199.837,-10.563 202.16,-11.647 204.66,-11.647C210.994,-11.647 214.16,-6.043 214.16,5.166C214.16,7.124 214.139,8.707 214.098,9.916L212.098,60.603C212.056,61.062 212.035,61.791 212.035,62.791C212.035,64.749 212.192,66.124 212.504,66.916C212.817,67.707 213.369,68.103 214.16,68.103C215.244,68.103 216.514,67.364 217.973,65.885C219.431,64.405 221.264,61.978 223.473,58.603C226.181,54.52 228.942,49.635 231.754,43.947C234.567,38.26 236.973,32.624 238.973,27.041C239.931,24.416 240.889,21.385 241.848,17.947C242.806,14.51 243.567,11.353 244.129,8.478C244.692,5.603 245.348,1.478 246.098,-3.897L246.285,-5.397L252.348,-8.022L252.223,-6.584L250.223,13.103C250.056,15.145 249.848,18.103 249.598,21.978C249.348,25.853 249.171,29.364 249.067,32.51C248.962,35.655 248.848,39.041 248.723,42.666C248.514,50.291 248.41,55.957 248.41,59.666C248.41,63.041 248.567,65.322 248.879,66.51C249.192,67.697 249.806,68.291 250.723,68.291C251.681,68.291 252.837,67.645 254.192,66.353C255.546,65.062 257.202,63.02 259.16,60.228C263.452,54.103 267.139,47.562 270.223,40.603C273.306,33.645 275.671,26.468 277.317,19.072C278.962,11.676 279.785,4.666 279.785,-1.959C279.785,-2.376 279.744,-4.126 279.66,-7.209Z" style="fill-rule:nonzero;"/>
                <path d="M305.785,62.291L306.91,63.228C304.327,66.645 301.806,69.114 299.348,70.635C296.889,72.155 294.244,72.916 291.41,72.916C288.035,72.916 285.327,71.791 283.285,69.541C281.244,67.291 280.223,64.312 280.223,60.603C280.223,56.853 281.212,53.051 283.192,49.197C285.171,45.343 287.65,42.155 290.629,39.635C293.608,37.114 296.556,35.853 299.473,35.853C301.181,35.853 302.587,36.353 303.692,37.353C304.796,38.353 305.348,39.645 305.348,41.228C305.348,44.437 303.598,47.645 300.098,50.853C296.598,54.062 291.827,56.791 285.785,59.041C285.744,59.374 285.723,59.749 285.723,60.166C285.723,63.041 286.514,65.385 288.098,67.197C289.681,69.01 291.723,69.916 294.223,69.916C296.181,69.916 298.077,69.301 299.91,68.072C301.744,66.843 303.702,64.916 305.785,62.291ZM285.785,57.541C290.285,55.541 293.744,53.312 296.16,50.853C297.785,49.187 299.098,47.395 300.098,45.478C301.098,43.562 301.598,41.832 301.598,40.291C301.598,38.332 300.702,37.353 298.91,37.353C296.202,37.353 293.462,39.489 290.692,43.76C287.921,48.03 286.285,52.624 285.785,57.541Z" style="fill-rule:nonzero;"/>
                <path d="M356.598,-16.084L340.035,55.978C339.16,59.812 338.723,62.478 338.723,63.978C338.723,65.312 338.962,66.395 339.442,67.228C339.921,68.062 340.577,68.478 341.41,68.478C342.494,68.478 343.806,67.666 345.348,66.041L347.16,64.228C347.202,64.187 347.244,64.145 347.285,64.103C347.327,64.062 347.389,64.02 347.473,63.978L348.41,64.853L347.91,65.416C346.327,67.166 345.514,68.062 345.473,68.103L343.41,70.166C342.369,71.207 341.608,71.864 341.129,72.135C340.65,72.405 340.119,72.541 339.535,72.541C338.16,72.541 337.014,71.832 336.098,70.416C335.181,68.999 334.723,67.374 334.723,65.541C334.723,64.457 335.014,62.478 335.598,59.603L336.285,56.041C335.202,58.666 333.494,61.52 331.16,64.603C326.952,70.02 322.869,72.728 318.91,72.728C316.535,72.728 314.66,71.864 313.285,70.135C311.91,68.405 311.223,66.062 311.223,63.103C311.223,58.978 312.306,54.801 314.473,50.572C316.639,46.343 319.4,42.853 322.754,40.103C326.108,37.353 329.452,35.978 332.785,35.978C335.244,35.978 337.535,36.707 339.66,38.166L349.848,-12.897L356.598,-16.084ZM339.098,41.291C338.723,40.166 337.952,39.26 336.785,38.572C335.619,37.885 334.369,37.541 333.035,37.541C331.077,37.541 329.067,38.416 327.004,40.166C324.942,41.916 322.994,44.395 321.16,47.603C319.827,49.978 318.733,52.572 317.879,55.385C317.025,58.197 316.598,60.749 316.598,63.041C316.598,65.041 317.025,66.645 317.879,67.853C318.733,69.062 319.91,69.666 321.41,69.666C323.16,69.666 325.046,68.77 327.067,66.978C329.087,65.187 331.119,62.603 333.16,59.228C334.535,56.937 335.619,54.562 336.41,52.103C337.369,48.937 338.056,46.395 338.473,44.478L339.098,41.291Z" style="fill-rule:nonzero;"/>
                <path d="M397.285,-16.084L380.723,55.978C379.848,59.812 379.41,62.478 379.41,63.978C379.41,65.312 379.65,66.395 380.129,67.228C380.608,68.062 381.264,68.478 382.098,68.478C383.181,68.478 384.494,67.666 386.035,66.041L387.848,64.228C387.889,64.187 387.931,64.145 387.973,64.103C388.014,64.062 388.077,64.02 388.16,63.978L389.098,64.853L388.598,65.416C387.014,67.166 386.202,68.062 386.16,68.103L384.098,70.166C383.056,71.207 382.296,71.864 381.817,72.135C381.337,72.405 380.806,72.541 380.223,72.541C378.848,72.541 377.702,71.832 376.785,70.416C375.869,68.999 375.41,67.374 375.41,65.541C375.41,64.457 375.702,62.478 376.285,59.603L376.973,56.041C375.889,58.666 374.181,61.52 371.848,64.603C367.639,70.02 363.556,72.728 359.598,72.728C357.223,72.728 355.348,71.864 353.973,70.135C352.598,68.405 351.91,66.062 351.91,63.103C351.91,58.978 352.994,54.801 355.16,50.572C357.327,46.343 360.087,42.853 363.442,40.103C366.796,37.353 370.139,35.978 373.473,35.978C375.931,35.978 378.223,36.707 380.348,38.166L390.535,-12.897L397.285,-16.084ZM379.785,41.291C379.41,40.166 378.639,39.26 377.473,38.572C376.306,37.885 375.056,37.541 373.723,37.541C371.764,37.541 369.754,38.416 367.692,40.166C365.629,41.916 363.681,44.395 361.848,47.603C360.514,49.978 359.421,52.572 358.567,55.385C357.712,58.197 357.285,60.749 357.285,63.041C357.285,65.041 357.712,66.645 358.567,67.853C359.421,69.062 360.598,69.666 362.098,69.666C363.848,69.666 365.733,68.77 367.754,66.978C369.775,65.187 371.806,62.603 373.848,59.228C375.223,56.937 376.306,54.562 377.098,52.103C378.056,48.937 378.744,46.395 379.16,44.478L379.785,41.291Z" style="fill-rule:nonzero;"/>
                <path d="M406.91,10.916C407.994,10.916 408.869,11.249 409.535,11.916C410.202,12.582 410.535,13.457 410.535,14.541C410.535,15.582 410.181,16.457 409.473,17.166C408.764,17.874 407.91,18.228 406.91,18.228C405.952,18.228 405.098,17.853 404.348,17.103C403.598,16.353 403.223,15.499 403.223,14.541C403.223,13.541 403.577,12.687 404.285,11.978C404.994,11.27 405.869,10.916 406.91,10.916ZM405.098,35.416L399.598,55.978C398.681,59.353 398.223,62.062 398.223,64.103C398.223,65.437 398.452,66.52 398.91,67.353C399.369,68.187 399.973,68.603 400.723,68.603C402.014,68.603 404.077,67.062 406.91,63.978L407.91,64.853L407.285,65.541C404.91,68.332 403.16,70.218 402.035,71.197C400.91,72.176 399.869,72.666 398.91,72.666C397.619,72.666 396.525,72.01 395.629,70.697C394.733,69.385 394.285,67.749 394.285,65.791C394.285,64.541 394.535,62.562 395.035,59.853L398.973,37.978L405.098,35.416Z" style="fill-rule:nonzero;"/>
                <path d="M411.66,72.603L418.285,37.978L424.223,35.416L418.848,58.353C422.306,51.062 425.744,45.52 429.16,41.728C432.577,37.937 435.848,36.041 438.973,36.041C440.514,36.041 441.764,36.551 442.723,37.572C443.681,38.593 444.16,39.957 444.16,41.666C444.16,42.624 443.931,43.978 443.473,45.728L442.848,48.353L440.973,55.978L440.348,58.416C439.723,60.916 439.41,62.832 439.41,64.166C439.41,65.499 439.639,66.572 440.098,67.385C440.556,68.197 441.16,68.603 441.91,68.603C443.202,68.603 445.264,67.062 448.098,63.978L449.098,64.853L448.473,65.541C446.098,68.332 444.348,70.218 443.223,71.197C442.098,72.176 441.056,72.666 440.098,72.666C438.806,72.666 437.712,72.01 436.817,70.697C435.921,69.385 435.473,67.749 435.473,65.791C435.473,64.457 435.723,62.478 436.223,59.853L438.66,46.603C438.994,44.52 439.16,43.062 439.16,42.228C439.16,41.353 438.931,40.687 438.473,40.228C438.014,39.77 437.389,39.541 436.598,39.541C433.723,39.541 430.181,42.624 425.973,48.791C423.931,51.749 422.244,54.676 420.91,57.572C419.577,60.468 418.077,64.478 416.41,69.603L415.848,71.291L411.66,72.603Z" style="fill-rule:nonzero;"/>
                <path d="M487.473,35.041L477.91,73.103C476.952,77.187 476.108,80.187 475.379,82.103C474.65,84.02 473.764,85.77 472.723,87.353C470.764,90.353 468.379,92.655 465.567,94.26C462.754,95.864 459.723,96.666 456.473,96.666C453.514,96.666 450.91,95.832 448.66,94.166L451.848,90.041C454.556,92.624 457.244,93.916 459.91,93.916C461.619,93.916 463.348,93.374 465.098,92.291C466.848,91.207 468.139,89.874 468.973,88.291C470.056,86.374 471.181,82.895 472.348,77.853L477.16,57.228C471.577,67.645 465.91,72.853 460.16,72.853C457.827,72.853 455.942,71.968 454.504,70.197C453.067,68.426 452.348,66.166 452.348,63.416C452.348,59.499 453.452,55.416 455.66,51.166C457.869,46.916 460.65,43.385 464.004,40.572C467.358,37.76 470.619,36.353 473.785,36.353C476.744,36.353 479.202,37.457 481.16,39.666L481.723,37.478L487.473,35.041ZM480.473,42.791C478.848,39.666 476.702,38.103 474.035,38.103C471.244,38.103 468.494,39.645 465.785,42.728C463.577,45.312 461.692,48.551 460.129,52.447C458.567,56.343 457.785,59.832 457.785,62.916C457.785,64.999 458.233,66.635 459.129,67.822C460.025,69.01 461.285,69.603 462.91,69.603C464.577,69.603 466.421,68.687 468.442,66.853C470.462,65.02 472.473,62.437 474.473,59.103C476.764,55.312 478.535,50.812 479.785,45.603L480.473,42.791Z" style="fill-rule:nonzero;"/>
                <path d="M519.41,71.978L527.223,35.916C528.556,29.791 529.629,23.405 530.442,16.76C531.254,10.114 531.66,3.978 531.66,-1.647C531.66,-2.938 531.639,-4.084 531.598,-5.084L538.473,-8.209L538.473,-6.459C538.473,-3.709 538.223,0.728 537.723,6.853C537.223,12.978 536.702,17.687 536.16,20.978C538.702,15.02 541.869,9.489 545.66,4.385C549.452,-0.72 553.337,-4.751 557.317,-7.709C561.296,-10.668 564.91,-12.147 568.16,-12.147C571.41,-12.147 574.025,-10.845 576.004,-8.24C577.983,-5.636 578.973,-2.147 578.973,2.228C578.973,7.728 577.785,13.249 575.41,18.791C573.035,24.332 569.796,29.437 565.692,34.103C561.587,38.77 557.087,42.447 552.192,45.135C547.296,47.822 542.452,49.166 537.66,49.166C536.577,49.166 535.306,49.02 533.848,48.728L537.16,44.291C539.202,44.957 541.285,45.291 543.41,45.291C546.869,45.291 550.337,44.135 553.817,41.822C557.296,39.51 560.41,36.249 563.16,32.041C565.702,28.166 567.869,23.343 569.66,17.572C571.452,11.801 572.348,6.812 572.348,2.603C572.348,-0.897 571.754,-3.626 570.567,-5.584C569.379,-7.543 567.723,-8.522 565.598,-8.522C562.598,-8.522 559.139,-6.803 555.223,-3.365C551.306,0.072 547.473,4.728 543.723,10.603C541.014,14.77 538.754,19.27 536.942,24.103C535.129,28.937 533.514,34.541 532.098,40.916L525.348,71.978L519.41,71.978Z" style="fill-rule:nonzero;"/>
                <path d="M597.785,-16.084L581.348,55.978L580.785,58.416C580.244,60.707 579.973,62.645 579.973,64.228C579.973,65.52 580.212,66.572 580.692,67.385C581.171,68.197 581.764,68.603 582.473,68.603C583.764,68.603 585.827,67.062 588.66,63.978L589.66,64.853L589.035,65.541C586.66,68.332 584.91,70.218 583.785,71.197C582.66,72.176 581.619,72.666 580.66,72.666C579.41,72.666 578.317,71.968 577.379,70.572C576.442,69.176 575.973,67.582 575.973,65.791C575.973,64.541 576.244,62.562 576.785,59.853L591.223,-12.897L597.785,-16.084Z" style="fill-rule:nonzero;"/>
                <path d="M628.035,35.041L622.16,57.916C621.535,60.416 621.223,62.374 621.223,63.791C621.223,65.041 621.494,66.124 622.035,67.041C622.577,67.957 623.244,68.416 624.035,68.416C625.244,68.416 627.244,66.937 630.035,63.978L630.91,64.853L630.223,65.666C628.014,68.207 626.317,69.989 625.129,71.01C623.942,72.03 622.91,72.541 622.035,72.541C620.702,72.541 619.546,71.843 618.567,70.447C617.587,69.051 617.098,67.437 617.098,65.603C617.098,64.27 617.598,61.249 618.598,56.541L619.098,54.166C617.556,57.749 615.494,61.187 612.91,64.478C608.577,69.978 604.431,72.728 600.473,72.728C598.098,72.728 596.223,71.874 594.848,70.166C593.473,68.457 592.785,66.166 592.785,63.291C592.785,59.374 593.9,55.27 596.129,50.978C598.358,46.687 601.129,43.155 604.442,40.385C607.754,37.614 610.973,36.228 614.098,36.228C617.389,36.228 619.848,37.437 621.473,39.853L622.16,37.478L628.035,35.041ZM620.848,43.041C620.348,41.457 619.504,40.218 618.317,39.322C617.129,38.426 615.764,37.978 614.223,37.978C612.389,37.978 610.452,38.822 608.41,40.51C606.369,42.197 604.494,44.541 602.785,47.541C601.452,49.916 600.337,52.541 599.442,55.416C598.546,58.291 598.098,60.666 598.098,62.541C598.098,64.666 598.504,66.332 599.317,67.541C600.129,68.749 601.285,69.353 602.785,69.353C604.702,69.353 606.702,68.457 608.785,66.666C610.869,64.874 612.931,62.312 614.973,58.978C616.223,57.062 617.202,55.145 617.91,53.228C618.619,51.312 619.41,48.645 620.285,45.228L620.848,43.041Z" style="fill-rule:nonzero;"/>
                <path d="M635.035,72.603L641.66,37.978L647.598,35.416L642.223,58.353C645.681,51.062 649.119,45.52 652.535,41.728C655.952,37.937 659.223,36.041 662.348,36.041C663.889,36.041 665.139,36.551 666.098,37.572C667.056,38.593 667.535,39.957 667.535,41.666C667.535,42.624 667.306,43.978 666.848,45.728L666.223,48.353L664.348,55.978L663.723,58.416C663.098,60.916 662.785,62.832 662.785,64.166C662.785,65.499 663.014,66.572 663.473,67.385C663.931,68.197 664.535,68.603 665.285,68.603C666.577,68.603 668.639,67.062 671.473,63.978L672.473,64.853L671.848,65.541C669.473,68.332 667.723,70.218 666.598,71.197C665.473,72.176 664.431,72.666 663.473,72.666C662.181,72.666 661.087,72.01 660.192,70.697C659.296,69.385 658.848,67.749 658.848,65.791C658.848,64.457 659.098,62.478 659.598,59.853L662.035,46.603C662.369,44.52 662.535,43.062 662.535,42.228C662.535,41.353 662.306,40.687 661.848,40.228C661.389,39.77 660.764,39.541 659.973,39.541C657.098,39.541 653.556,42.624 649.348,48.791C647.306,51.749 645.619,54.676 644.285,57.572C642.952,60.468 641.452,64.478 639.785,69.603L639.223,71.291L635.035,72.603Z" style="fill-rule:nonzero;"/>
                <path d="M676.535,72.603L683.16,37.978L689.098,35.416L683.723,58.353C687.181,51.062 690.619,45.52 694.035,41.728C697.452,37.937 700.723,36.041 703.848,36.041C705.389,36.041 706.639,36.551 707.598,37.572C708.556,38.593 709.035,39.957 709.035,41.666C709.035,42.624 708.806,43.978 708.348,45.728L707.723,48.353L705.848,55.978L705.223,58.416C704.598,60.916 704.285,62.832 704.285,64.166C704.285,65.499 704.514,66.572 704.973,67.385C705.431,68.197 706.035,68.603 706.785,68.603C708.077,68.603 710.139,67.062 712.973,63.978L713.973,64.853L713.348,65.541C710.973,68.332 709.223,70.218 708.098,71.197C706.973,72.176 705.931,72.666 704.973,72.666C703.681,72.666 702.587,72.01 701.692,70.697C700.796,69.385 700.348,67.749 700.348,65.791C700.348,64.457 700.598,62.478 701.098,59.853L703.535,46.603C703.869,44.52 704.035,43.062 704.035,42.228C704.035,41.353 703.806,40.687 703.348,40.228C702.889,39.77 702.264,39.541 701.473,39.541C698.598,39.541 695.056,42.624 690.848,48.791C688.806,51.749 687.119,54.676 685.785,57.572C684.452,60.468 682.952,64.478 681.285,69.603L680.723,71.291L676.535,72.603Z" style="fill-rule:nonzero;"/>
                <path d="M742.973,62.291L744.098,63.228C741.514,66.645 738.994,69.114 736.535,70.635C734.077,72.155 731.431,72.916 728.598,72.916C725.223,72.916 722.514,71.791 720.473,69.541C718.431,67.291 717.41,64.312 717.41,60.603C717.41,56.853 718.4,53.051 720.379,49.197C722.358,45.343 724.837,42.155 727.817,39.635C730.796,37.114 733.744,35.853 736.66,35.853C738.369,35.853 739.775,36.353 740.879,37.353C741.983,38.353 742.535,39.645 742.535,41.228C742.535,44.437 740.785,47.645 737.285,50.853C733.785,54.062 729.014,56.791 722.973,59.041C722.931,59.374 722.91,59.749 722.91,60.166C722.91,63.041 723.702,65.385 725.285,67.197C726.869,69.01 728.91,69.916 731.41,69.916C733.369,69.916 735.264,69.301 737.098,68.072C738.931,66.843 740.889,64.916 742.973,62.291ZM722.973,57.541C727.473,55.541 730.931,53.312 733.348,50.853C734.973,49.187 736.285,47.395 737.285,45.478C738.285,43.562 738.785,41.832 738.785,40.291C738.785,38.332 737.889,37.353 736.098,37.353C733.389,37.353 730.65,39.489 727.879,43.76C725.108,48.03 723.473,52.624 722.973,57.541Z" style="fill-rule:nonzero;"/>
                <path d="M748.41,54.228C751.994,49.895 754.389,45.853 755.598,42.103C752.223,40.228 750.535,37.541 750.535,34.041C750.535,32.374 750.931,31.02 751.723,29.978C752.514,28.937 753.514,28.416 754.723,28.416C755.973,28.416 756.994,28.989 757.785,30.135C758.577,31.28 758.973,32.77 758.973,34.603C758.973,35.895 758.744,37.332 758.285,38.916C759.41,39.207 760.431,39.353 761.348,39.353C763.931,39.353 766.056,38.603 767.723,37.103L770.723,37.103L770.285,37.978C767.285,43.478 764.817,48.885 762.879,54.197C760.942,59.51 759.973,63.478 759.973,66.103C759.973,67.062 760.223,67.864 760.723,68.51C761.223,69.155 761.827,69.478 762.535,69.478C764.244,69.478 766.994,67.666 770.785,64.041L771.785,65.166C770.619,66.457 768.806,68.062 766.348,69.978C764.139,71.728 762.077,72.603 760.16,72.603C758.535,72.603 757.254,72.062 756.317,70.978C755.379,69.895 754.91,68.416 754.91,66.541C754.91,63.416 756.119,59.457 758.535,54.666C759.41,52.874 760.535,50.832 761.91,48.541C763.285,46.249 765.014,43.52 767.098,40.353L767.723,39.478C766.348,40.728 765.025,41.614 763.754,42.135C762.483,42.655 761.035,42.916 759.41,42.916C758.66,42.916 757.869,42.812 757.035,42.603C755.702,46.687 753.202,50.895 749.535,55.228L748.41,54.228ZM756.973,38.353C757.139,37.312 757.223,36.437 757.223,35.728C757.223,34.27 756.983,33.124 756.504,32.291C756.025,31.457 755.41,31.041 754.66,31.041C754.244,31.041 753.879,31.239 753.567,31.635C753.254,32.03 753.098,32.52 753.098,33.103C753.098,35.062 754.389,36.812 756.973,38.353Z" style="fill-rule:nonzero;"/>
            </g>
        </g>
    </g>
</svg>
